<?xml version="1.0" standalone="no"?>
<!DOCTYPE svg PUBLIC "-//W3C//DTD SVG 20010904//EN"
 "http://www.w3.org/TR/2001/REC-SVG-20010904/DTD/svg10.dtd">
<svg version="1.0" xmlns="http://www.w3.org/2000/svg"
 width="760.000000pt" height="760.000000pt" viewBox="0 0 760.000000 760.000000"
 preserveAspectRatio="xMidYMid meet">
<metadata>
Created by potrace 1.11, written by Peter Selinger 2001-2013
</metadata>
<g transform="translate(0.000000,760.000000) scale(0.100000,-0.100000)"
fill="#000000" stroke="none">
<path d="M1328 7595 c-2 -2 -23 -6 -48 -10 -142 -20 -284 -91 -373 -188 -39
-41 -128 -180 -133 -207 0 -3 -4 -14 -8 -25 -4 -11 -12 -31 -16 -45 -4 -14
-11 -34 -16 -45 -12 -34 -11 -28 -54 -222 -17 -78 -33 -155 -35 -170 -2 -15
-14 -68 -25 -118 -11 -49 -22 -99 -25 -110 -10 -49 -27 -132 -31 -153 -3 -13
-15 -74 -29 -135 -13 -62 -26 -123 -29 -137 -3 -14 -8 -36 -11 -50 -3 -14 -7
-37 -10 -52 -5 -25 -30 -142 -39 -178 -2 -8 -7 -35 -12 -60 -8 -47 -10 -55
-14 -67 -1 -5 -2 -11 -1 -15 0 -4 -3 -18 -8 -32 -6 -13 -13 -44 -16 -67 -3
-24 -10 -60 -15 -79 -5 -19 -11 -46 -14 -60 -3 -14 -7 -36 -10 -50 -14 -64
-17 -77 -21 -100 -3 -14 -10 -45 -15 -70 -5 -25 -12 -56 -15 -70 -4 -23 -7
-36 -21 -100 -3 -14 -7 -36 -10 -50 -3 -14 -10 -45 -16 -70 -6 -25 -12 -54
-14 -65 -1 -11 -5 -31 -9 -45 -3 -14 -7 -34 -9 -45 -2 -11 -9 -42 -16 -70 -6
-27 -13 -65 -16 -84 -2 -18 -6 -37 -9 -41 -3 -4 -7 -25 -11 -45 -5 -36 -9 -54
-18 -92 -2 -10 -12 -54 -21 -98 -9 -44 -18 -87 -20 -95 -24 -108 -47 -220 -48
-237 -1 -13 -4 -23 -7 -23 -8 0 -14 -77 -14 -195 -1 -92 3 -121 23 -175 79
-215 270 -331 545 -328 92 1 197 23 260 55 66 33 138 98 182 164 44 67 92 170
101 218 2 14 8 31 12 39 7 12 10 10 15 -9 4 -13 11 -40 16 -59 5 -19 18 -66
29 -105 11 -38 32 -115 46 -170 26 -98 73 -270 79 -290 2 -5 6 -23 10 -40 5
-16 16 -59 26 -95 10 -36 41 -153 70 -260 29 -107 54 -202 57 -210 7 -18 9
-25 18 -65 7 -35 10 -45 18 -65 5 -12 17 -59 43 -160 2 -8 22 -82 44 -165 23
-82 50 -181 60 -220 10 -38 26 -97 36 -130 9 -33 17 -64 18 -70 2 -5 8 -30 15
-55 7 -25 15 -54 18 -65 5 -25 7 -30 23 -85 7 -25 14 -49 15 -55 2 -5 30 -112
64 -238 34 -125 64 -235 66 -245 3 -9 14 -51 25 -92 12 -41 28 -100 36 -130 8
-30 16 -61 19 -68 2 -7 5 -14 5 -17 2 -13 71 -167 86 -192 50 -82 74 -113 125
-163 83 -82 232 -150 367 -168 123 -17 410 -3 450 22 5 3 20 7 34 10 67 12
215 95 286 160 86 79 197 253 218 341 4 17 10 35 14 40 4 6 12 32 19 58 6 26
34 123 62 215 45 148 71 234 84 282 21 77 159 540 165 555 5 11 19 54 30 95
12 41 28 98 36 125 8 28 17 58 19 68 2 9 6 21 9 25 3 5 7 19 10 33 3 13 19 69
36 124 28 91 44 145 55 185 2 8 25 85 50 170 26 85 48 160 50 165 1 6 5 17 8
25 3 8 11 35 18 60 7 25 14 50 15 55 2 6 9 33 17 61 8 28 19 59 25 69 8 16 11
14 17 -16 4 -19 10 -38 13 -44 4 -5 7 -14 8 -20 1 -5 11 -41 24 -80 12 -38 23
-78 25 -89 3 -10 11 -37 19 -60 8 -22 29 -88 46 -146 17 -58 34 -114 38 -125
3 -11 7 -22 7 -25 1 -3 4 -12 7 -20 6 -14 56 -177 112 -360 14 -47 26 -89 27
-95 1 -5 7 -26 14 -45 13 -34 48 -148 115 -370 17 -58 33 -109 34 -115 2 -5 3
-12 3 -15 0 -3 5 -14 11 -26 6 -11 13 -33 16 -47 2 -15 13 -53 24 -84 11 -32
25 -78 32 -103 8 -25 16 -49 19 -55 3 -5 6 -14 7 -20 2 -15 44 -157 51 -175 4
-8 7 -17 8 -20 7 -23 29 -97 31 -105 9 -37 66 -210 83 -254 44 -109 122 -221
193 -276 21 -17 44 -35 51 -41 42 -37 174 -88 279 -107 75 -14 324 -16 408 -4
185 28 308 92 399 211 37 48 121 202 125 230 1 6 4 16 7 21 11 18 76 225 95
300 1 6 14 51 29 100 15 50 52 173 81 275 30 102 82 277 115 390 33 113 64
219 68 235 5 17 28 95 51 174 23 79 43 149 45 155 1 6 5 18 8 26 5 13 37 118
43 145 2 6 12 42 24 80 11 39 22 77 24 85 2 8 9 27 15 43 6 15 9 27 6 27 -2 0
2 15 10 33 7 17 13 34 13 37 0 5 20 86 26 105 2 6 4 13 5 17 1 4 9 27 17 50 9
24 17 50 18 58 1 8 12 48 25 89 12 41 24 81 27 90 2 9 15 54 29 101 15 47 28
92 30 101 2 9 24 86 50 172 26 87 48 163 49 169 2 7 6 20 9 28 7 16 29 96 33
120 2 8 10 45 17 82 15 69 17 238 3 273 -61 159 -171 261 -336 309 -186 55
-439 30 -564 -56 -50 -34 -111 -103 -144 -160 -32 -55 -86 -207 -96 -268 -3
-19 -12 -60 -20 -90 -7 -30 -17 -73 -22 -95 -8 -44 -10 -53 -14 -60 -3 -6 -3
-6 -14 -60 -12 -55 -15 -66 -20 -95 -3 -14 -7 -34 -10 -45 -5 -21 -36 -156
-62 -270 -9 -38 -18 -79 -20 -90 -2 -11 -12 -56 -23 -101 -11 -44 -22 -91 -25
-105 -3 -20 -20 -91 -42 -184 -5 -18 -13 -62 -18 -90 -1 -5 -5 -16 -9 -22 -5
-7 -6 -13 -3 -13 2 0 -2 -24 -10 -53 -8 -28 -17 -68 -20 -87 -2 -19 -10 -53
-15 -75 -6 -22 -13 -49 -15 -60 -2 -11 -6 -29 -9 -40 -2 -11 -12 -51 -21 -90
-8 -38 -17 -77 -19 -85 -12 -50 -73 -323 -81 -358 -2 -12 -14 -62 -25 -110
-12 -48 -23 -96 -25 -107 -47 -220 -50 -229 -62 -199 -10 26 -42 132 -48 159
-1 6 -14 48 -29 95 -15 47 -28 90 -30 95 -1 6 -9 35 -19 65 -10 30 -22 69 -26
85 -5 17 -17 59 -28 95 -69 225 -238 781 -263 865 -16 55 -34 111 -38 125 -11
30 -55 180 -60 202 -1 4 -8 26 -16 49 -9 23 -17 51 -20 63 -2 12 -7 32 -11 45
-4 14 -3 22 2 18 5 -3 30 -8 56 -11 25 -3 50 -6 55 -7 4 -1 10 -1 13 0 3 1 39
3 80 6 76 4 123 11 150 22 8 3 22 7 30 9 47 10 146 71 199 122 68 67 113 151
130 245 10 56 8 226 -4 277 -3 14 -12 59 -20 100 -8 41 -17 89 -20 105 -3 17
-8 41 -10 55 -2 14 -13 70 -25 125 -11 55 -23 115 -25 133 -2 18 -6 36 -9 40
-3 5 -7 26 -10 48 -6 45 -14 88 -22 124 -3 13 -7 40 -10 60 -2 19 -7 44 -11
55 -3 11 -7 29 -9 40 -2 11 -6 34 -9 50 -8 43 -25 135 -31 165 -2 14 -7 36
-10 50 -3 13 -7 38 -10 55 -2 16 -6 41 -9 55 -3 14 -8 36 -11 50 -2 14 -8 45
-14 70 -5 25 -12 63 -16 85 -10 56 -12 65 -20 105 -4 19 -8 42 -10 50 -2 8 -6
31 -10 50 -3 19 -8 49 -11 65 -2 17 -11 64 -19 105 -9 41 -18 86 -20 100 -3
14 -11 60 -20 103 -8 42 -17 90 -20 105 -2 15 -6 36 -9 48 -3 12 -7 39 -10 60
-4 21 -8 47 -11 56 -3 10 -7 30 -10 45 -2 16 -8 48 -14 73 -5 25 -12 63 -16
85 -4 22 -8 45 -9 50 -2 6 -5 24 -8 40 -3 17 -8 40 -11 51 -2 12 -7 37 -10 55
-5 31 -20 107 -33 169 -2 14 -6 34 -8 45 -12 73 -26 137 -40 185 -9 30 -19 69
-24 85 -16 61 -81 186 -129 251 -87 115 -231 203 -377 229 -16 3 -43 8 -60 12
-41 9 -309 10 -365 1 -117 -18 -231 -62 -320 -122 -44 -29 -150 -129 -150
-141 0 -3 -8 -14 -17 -25 -22 -23 -65 -107 -94 -180 -20 -54 -60 -188 -134
-460 -20 -74 -39 -142 -42 -150 -3 -8 -7 -19 -8 -25 -2 -5 -15 -53 -30 -105
-25 -89 -40 -144 -49 -180 -18 -66 -128 -458 -133 -470 -3 -8 -7 -20 -8 -25
-9 -41 -88 -325 -96 -345 -5 -14 -11 -35 -14 -48 -2 -13 -27 -105 -56 -205
-28 -100 -53 -193 -56 -206 -2 -14 -7 -29 -10 -34 -3 -5 -14 -41 -25 -81 -10
-39 -21 -78 -23 -86 -2 -8 -16 -59 -31 -112 -15 -54 -30 -98 -33 -98 -5 0 -19
45 -66 210 -2 8 -15 51 -29 95 -48 159 -88 290 -91 305 -2 8 -23 76 -46 150
-22 74 -42 142 -44 150 -2 8 -10 35 -18 60 -17 51 -88 290 -91 305 -1 6 -7 24
-13 40 -10 25 -19 54 -39 130 -2 6 -12 42 -24 80 -26 86 -50 165 -55 185 -2 8
-4 15 -5 15 -1 0 -3 7 -5 15 -7 31 -47 166 -55 185 -5 11 -12 34 -16 50 -9 38
-7 32 -44 150 -17 55 -33 105 -34 110 -1 6 -10 37 -20 70 -10 33 -20 67 -21
75 -2 8 -13 41 -24 73 -11 31 -18 57 -16 57 11 0 -89 238 -105 250 -4 3 -13
15 -19 28 -20 38 -116 142 -164 177 -77 57 -233 119 -329 130 -10 2 -19 4 -20
5 -4 4 -316 8 -320 5z m3108 -1298 c2 -28 14 -115 19 -147 5 -23 13 -81 20
-140 2 -14 5 -38 8 -55 3 -16 9 -55 12 -85 4 -30 9 -64 11 -75 8 -41 16 -102
20 -144 2 -24 6 -51 8 -60 3 -9 8 -41 12 -71 7 -60 9 -74 18 -135 9 -56 16
-103 22 -150 2 -22 9 -67 14 -99 5 -32 7 -63 4 -67 -3 -5 -1 -9 4 -9 6 0 9 -6
9 -12 -2 -15 12 -129 20 -173 3 -16 6 -45 7 -62 1 -18 3 -33 6 -33 3 0 6 -12
6 -27 1 -16 4 -44 8 -63 3 -19 8 -53 10 -75 4 -37 8 -59 22 -155 3 -19 7 -46
9 -60 2 -14 6 -42 9 -62 l5 -37 -52 21 c-149 60 -378 69 -547 21 -132 -37
-256 -124 -320 -224 -12 -19 -19 -25 -15 -14 15 43 25 74 60 190 20 66 39 127
42 135 3 8 7 21 9 28 1 6 14 50 29 97 14 46 28 92 30 102 2 10 20 72 40 138
20 66 38 127 40 135 2 8 20 71 40 140 20 69 38 134 41 145 2 11 25 97 52 190
27 94 53 184 57 200 12 43 12 43 35 120 12 39 22 79 24 90 2 11 6 27 9 35 7
18 67 227 72 254 3 10 16 59 30 107 14 48 25 96 25 105 0 24 14 8 16 -19z
m-2817 -37 c14 -55 12 -47 56 -200 20 -69 40 -141 45 -160 5 -19 16 -60 25
-90 9 -30 18 -62 20 -70 2 -8 11 -40 20 -70 9 -30 18 -62 20 -70 2 -8 20 -71
40 -140 20 -69 38 -136 41 -149 3 -13 9 -32 15 -43 5 -10 7 -18 5 -18 -3 0 2
-19 10 -42 9 -24 17 -52 20 -63 2 -11 7 -35 10 -53 3 -18 10 -35 15 -38 5 -3
9 -14 9 -25 0 -11 6 -41 14 -67 31 -99 47 -158 49 -172 2 -8 5 -19 8 -25 4 -5
9 -23 13 -40 4 -16 13 -52 21 -80 19 -63 69 -243 101 -359 13 -48 27 -92 30
-97 14 -23 -12 -4 -59 42 -50 50 -160 114 -211 123 -14 3 -30 7 -35 10 -7 5
-144 18 -176 17 -18 -1 -109 -10 -149 -15 -77 -10 -207 -64 -254 -106 -10 -8
-28 -24 -40 -34 l-23 -20 5 40 c3 21 7 48 10 59 9 52 16 94 21 135 6 44 10 71
20 120 2 13 7 42 10 65 3 22 10 65 15 95 5 30 12 71 14 90 3 19 8 51 11 70 11
66 46 285 51 320 3 19 7 49 11 65 3 17 7 41 9 55 6 49 14 105 19 130 3 14 7
39 9 55 10 68 16 101 21 125 3 14 7 43 10 65 9 65 13 92 19 122 3 15 8 42 10
58 8 53 18 119 22 140 2 11 7 40 10 65 3 25 7 55 9 68 21 132 30 171 36 165 3
-5 12 -28 18 -53z m2005 -2647 c-13 -43 -31 -98 -40 -123 -8 -25 -18 -56 -20
-69 -3 -13 -11 -39 -19 -57 -8 -19 -12 -34 -10 -34 3 0 -2 -17 -10 -37 -11
-30 -33 -103 -40 -133 0 -3 -9 -28 -18 -56 -10 -28 -20 -59 -22 -70 -2 -10
-32 -107 -65 -214 -34 -107 -63 -202 -65 -210 -2 -8 -10 -35 -18 -60 -9 -25
-25 -79 -37 -120 -11 -41 -25 -84 -30 -95 -8 -18 -33 -107 -31 -112 0 -2 -6
-18 -15 -38 -8 -19 -12 -35 -9 -35 3 0 0 -10 -6 -22 -7 -12 -18 -44 -25 -70
-31 -109 -100 -335 -150 -493 -14 -44 -37 -118 -50 -165 -14 -47 -27 -92 -31
-100 -3 -8 -7 -21 -9 -28 -4 -20 -14 -27 -15 -11 0 8 -3 23 -5 34 -3 11 -7 29
-9 40 -2 11 -9 38 -14 60 -5 22 -12 51 -15 65 -3 14 -8 36 -11 50 -6 24 -10
46 -19 93 -3 12 -23 103 -46 202 -51 228 -55 246 -64 295 -1 8 -5 24 -9 35 -3
11 -8 31 -11 45 -2 14 -12 57 -20 95 -9 39 -18 79 -20 90 -1 11 -6 29 -9 40
-3 11 -8 31 -11 45 -2 14 -10 48 -16 75 -6 28 -13 59 -16 70 -3 19 -8 39 -19
93 -3 12 -7 30 -9 40 -15 61 -49 220 -52 237 -1 11 -3 20 -4 20 -1 0 -3 7 -5
15 -2 8 -7 26 -10 40 -3 14 -8 34 -9 45 -4 21 -52 241 -63 285 -3 14 -8 34 -9
45 -2 11 -6 30 -9 42 -3 13 -6 25 -6 28 0 2 -7 27 -14 55 -7 27 -9 50 -4 50 8
0 13 -14 11 -32 -1 -3 5 -12 13 -18 8 -7 15 -21 15 -31 0 -11 4 -19 8 -19 4 0
16 -15 27 -32 24 -42 133 -148 151 -148 8 0 14 -4 14 -8 0 -5 28 -18 63 -30
110 -39 163 -46 332 -46 77 0 164 3 193 7 130 18 256 96 304 187 7 14 15 27
18 30 5 5 42 82 79 163 11 26 21 54 21 62 0 8 4 15 9 15 5 0 -2 -35 -15 -77z"/>
</g>
</svg>
