<?xml version="1.0" encoding="UTF-8"?>
<svg width="510px" height="38px" viewBox="0 0 510 38" version="1.1" xmlns="http://www.w3.org/2000/svg" xmlns:xlink="http://www.w3.org/1999/xlink">
    <!-- Generator: Sketch 59.1 (86144) - https://sketch.com -->
    <title>logo</title>
    <desc>Created with Sketch.</desc>
    <g id="Page-1" stroke="none" stroke-width="1" fill="none" fill-rule="evenodd">
        <g id="logo" fill-rule="nonzero">
            <path d="M38.758294,36.51145 L28.858294,37.21145 L28.858294,22.91145 L28.858294,22.11145 L28.808294,21.16145 C28.808294,19.8947833 28.1749607,19.26145 26.908294,19.26145 C26.708294,19.2947833 26.558294,19.31145 26.458294,19.31145 C25.2916273,19.4781167 24.708294,20.36145 24.708294,21.96145 L24.608294,22.86145 L24.608294,23.61145 L24.608294,36.51145 L14.708294,37.21145 L14.708294,22.96145 L14.708294,22.21145 L14.708294,21.86145 L14.708294,21.41145 C14.708294,20.8447833 14.558294,20.36145 14.258294,19.96145 C13.958294,19.56145 13.6749607,19.3447833 13.408294,19.31145 C13.1416273,19.2447833 12.9416273,19.21145 12.808294,19.21145 C12.6749607,19.21145 12.5749607,19.21145 12.508294,19.21145 C11.208294,19.21145 10.558294,20.1281167 10.558294,21.96145 L10.508294,22.71145 L10.458294,23.66145 L10.458294,36.51145 L0.558294,37.21145 L0.558294,10.96145 L10.458294,10.26145 L10.458294,14.11145 C10.958294,13.1447833 11.608294,12.31145 12.408294,11.61145 C13.8416273,10.4781167 15.408294,9.91145 17.108294,9.91145 C17.308294,9.91145 17.5416273,9.92811667 17.808294,9.96145 C18.108294,9.99478333 18.5916273,10.06145 19.258294,10.16145 C19.958294,10.2281167 20.6916273,10.5281167 21.458294,11.06145 C22.2249607,11.5947833 22.9249607,12.3947833 23.558294,13.46145 L23.908294,14.36145 L24.458294,13.51145 C25.458294,12.1781167 26.4416273,11.2447833 27.408294,10.71145 C28.3749607,10.1781167 29.5749607,9.91145 31.008294,9.91145 C33.6416273,9.91145 35.5916273,10.7447833 36.858294,12.41145 C38.1249607,14.0447833 38.758294,16.7947833 38.758294,20.66145 L38.758294,22.26145 L38.758294,23.46145 L38.758294,36.51145 L38.758294,36.51145 Z" id="Path" fill="#FF0000"></path>
            <path d="M119.22861,8.21145 L118.57861,8.11145 C117.27861,8.11145 116.445277,8.22811667 116.07861,8.46145 C115.745277,8.66145 115.495277,8.89478333 115.32861,9.16145 C115.161943,9.42811667 115.045277,9.81145 114.97861,10.31145 L114.92861,10.86145 L114.92861,11.31145 L118.32861,11.31145 L118.32861,18.66145 L114.92861,18.66145 L114.92861,36.41145 L104.42861,37.21145 L104.42861,18.66145 L101.97861,18.66145 L102.82861,11.31145 L104.42861,11.31145 L104.42861,10.91145 L104.42861,10.46145 L104.42861,10.16145 L104.62861,8.46145 C105.12861,5.89478333 106.311943,3.86145 108.17861,2.36145 C110.07861,0.828116667 112.37861,0.06145 115.07861,0.06145 C115.77861,0.06145 116.47861,0.11145 117.17861,0.21145 L117.57861,0.31145 L117.77861,0.31145 L119.22861,8.21145 L119.22861,8.21145 Z" id="Path" fill="#00CC00"></path>
            <polygon id="Path" fill="#0000FF" points="295.69111 11.16145 288.89111 36.86145 279.54111 36.86145 276.69111 22.61145 273.79111 36.86145 264.44111 36.86145 257.64111 11.16145 267.24111 10.06145 270.34111 25.06145 273.34111 10.61145 279.94111 10.61145 282.99111 25.06145 286.09111 10.06145"></polygon>
            <path d="M376.25908,28.26145 C376.292413,28.4947833 376.30908,28.8447833 376.30908,29.31145 C376.30908,31.7447833 375.242413,33.76145 373.10908,35.36145 C370.975747,36.9281167 367.942413,37.71145 364.00908,37.71145 C363.242413,37.71145 362.425747,37.6781167 361.55908,37.61145 C360.692413,37.5447833 359.542413,37.3947833 358.10908,37.16145 L356.20908,36.81145 L355.30908,36.66145 L356.45908,28.51145 L357.10908,28.71145 L357.80908,28.86145 L358.60908,29.01145 L359.65908,29.11145 C360.35908,29.21145 360.975747,29.26145 361.50908,29.26145 C362.042413,29.26145 362.65908,29.1781167 363.35908,29.01145 C364.092413,28.8447833 364.542413,28.5947833 364.70908,28.26145 C364.875747,27.8947833 364.95908,27.6447833 364.95908,27.51145 C364.95908,27.31145 364.90908,27.16145 364.80908,27.06145 L364.55908,26.86145 L363.60908,26.46145 L362.55908,26.11145 C360.025747,25.41145 358.175747,24.46145 357.00908,23.26145 C355.875747,22.0281167 355.30908,20.4781167 355.30908,18.61145 C355.30908,18.1781167 355.35908,17.5447833 355.45908,16.71145 C355.55908,15.8781167 356.00908,14.9447833 356.80908,13.91145 C357.60908,12.8781167 358.642413,12.06145 359.90908,11.46145 C361.175747,10.86145 362.425747,10.4447833 363.65908,10.21145 C364.892413,9.97811667 366.392413,9.86145 368.15908,9.86145 C369.025747,9.86145 369.842413,9.91145 370.60908,10.01145 C371.40908,10.11145 372.575747,10.3281167 374.10908,10.66145 L375.20908,10.96145 L374.00908,18.76145 L373.40908,18.66145 L372.85908,18.56145 L372.05908,18.51145 L371.15908,18.46145 L370.40908,18.36145 L369.60908,18.36145 L369.10908,18.36145 L368.60908,18.36145 L368.15908,18.36145 C367.092413,18.4947833 366.50908,18.81145 366.40908,19.31145 L366.40908,19.61145 C366.40908,19.9447833 366.442413,20.16145 366.50908,20.26145 C366.575747,20.36145 366.792413,20.4947833 367.15908,20.66145 L367.50908,20.81145 L368.65908,21.21145 C371.425747,22.11145 373.342413,23.06145 374.40908,24.06145 C375.475747,25.0281167 376.092413,26.4281167 376.25908,28.26145 L376.25908,28.26145 Z" id="Path" fill="#FF00FF"></path>
            <path d="M63.00111,36.58145 L55.16111,37.14145 L55.16111,34.62145 L54.92111,34.94145 C54.2544433,35.7681167 53.52111,36.3547833 52.72111,36.70145 C51.92111,37.0481167 50.8677767,37.22145 49.56111,37.22145 C47.2677767,37.22145 45.52111,36.46145 44.32111,34.94145 C43.12111,33.3947833 42.52111,31.0081167 42.52111,27.78145 L42.52111,27.18145 L42.52111,16.14145 L50.92111,15.58145 L50.92111,26.50145 L50.92111,27.62145 L50.96111,28.22145 C50.96111,28.6481167 51.1077767,29.0081167 51.40111,29.30145 C51.72111,29.5947833 52.1077767,29.74145 52.56111,29.74145 C52.80111,29.74145 53.0944433,29.6881167 53.44111,29.58145 C53.8144433,29.4481167 54.0544433,29.26145 54.16111,29.02145 C54.2944433,28.78145 54.3877767,28.5681167 54.44111,28.38145 C54.52111,28.1681167 54.56111,28.0347833 54.56111,27.98145 L54.56111,27.14145 L54.60111,25.86145 L54.60111,16.14145 L63.00111,15.58145 L63.00111,36.58145 L63.00111,36.58145 Z" id="Path" fill="#FFFF00"></path>
            <polygon id="Path" fill="#FFFF00" points="74.74923 36.58145 66.34923 37.14145 66.34923 8.02145 74.74923 7.46145"></polygon>
            <path d="M90.22611,16.42145 L89.10611,22.30145 L86.78611,22.30145 L86.78611,27.30145 L86.78611,27.82145 L86.78611,28.26145 C86.94611,29.46145 87.70611,30.06145 89.06611,30.06145 C89.3594433,30.06145 89.5727767,30.0481167 89.70611,30.02145 L90.06611,29.98145 L88.70611,37.18145 L88.54611,37.18145 L88.02611,37.22145 L86.22611,37.14145 C83.2927767,36.8747833 81.2527767,36.06145 80.10611,34.70145 C78.9594433,33.3147833 78.38611,31.0347833 78.38611,27.86145 L78.38611,27.30145 L78.38611,22.30145 L76.46611,22.30145 L77.38611,16.42145 L78.38611,16.42145 L78.38611,13.62145 L86.78611,10.26145 L86.78611,16.42145 L90.22611,16.42145 L90.22611,16.42145 Z" id="Path" fill="#FFFF00"></path>
            <path d="M100.74173,10.26145 L95.86173,15.02145 L90.94173,10.26145 L95.86173,5.50145 L100.74173,10.26145 Z M100.06173,36.50145 L91.66173,37.14145 L91.66173,16.14145 L100.06173,15.58145 L100.06173,36.50145 Z" id="Shape" fill="#FFFF00"></path>
            <path d="M140.58486,36.86145 L132.74486,36.86145 L132.74486,34.18145 L132.22486,34.74145 C130.491527,36.3947833 128.638193,37.22145 126.66486,37.22145 C126.158193,37.22145 124.958193,36.9947833 123.06486,36.54145 C121.171527,36.0881167 120.038193,34.94145 119.66486,33.10145 C119.318193,31.26145 119.14486,30.06145 119.14486,29.50145 C119.14486,26.86145 119.98486,25.0747833 121.66486,24.14145 C123.371527,23.2081167 124.811527,22.74145 125.98486,22.74145 C126.78486,22.74145 127.571527,22.86145 128.34486,23.10145 C129.14486,23.34145 129.971527,23.7281167 130.82486,24.26145 L131.62486,24.78145 L131.62486,23.54145 L131.62486,23.30145 C131.62486,22.90145 131.398193,22.34145 130.94486,21.62145 C130.518193,20.90145 129.14486,20.54145 126.82486,20.54145 L125.86486,20.62145 L125.26486,20.70145 C124.331527,20.78145 123.358193,20.9281167 122.34486,21.14145 L121.42486,21.38145 L122.82486,15.86145 L124.58486,15.54145 C126.42486,15.2481167 128.211527,15.10145 129.94486,15.10145 C133.54486,15.10145 136.211527,15.8347833 137.94486,17.30145 C139.70486,18.74145 140.58486,20.78145 140.58486,23.42145 L140.58486,24.66145 L140.58486,36.86145 Z M131.74486,30.94145 C131.878193,30.7547833 131.98486,30.5547833 132.06486,30.34145 C132.14486,30.1281167 132.18486,29.9147833 132.18486,29.70145 C132.18486,29.5147833 132.14486,29.3147833 132.06486,29.10145 C131.98486,28.8881167 131.798193,28.5681167 131.50486,28.14145 C131.211527,27.7147833 130.571527,27.50145 129.58486,27.50145 C129.34486,27.50145 129.011527,27.54145 128.58486,27.62145 C128.158193,27.70145 127.798193,27.98145 127.50486,28.46145 C127.211527,28.9147833 127.06486,29.3281167 127.06486,29.70145 C127.06486,30.1281167 127.251527,30.6081167 127.62486,31.14145 C127.998193,31.6481167 128.66486,31.90145 129.62486,31.90145 C129.838193,31.90145 130.158193,31.86145 130.58486,31.78145 C131.038193,31.70145 131.42486,31.42145 131.74486,30.94145 Z" id="Shape" fill="#FFFF00"></path>
            <path d="M163.40736,17.98145 L158.68736,24.10145 C157.914027,23.38145 156.940693,23.02145 155.76736,23.02145 C154.914027,23.02145 154.16736,23.2747833 153.52736,23.78145 C152.914027,24.26145 152.540693,24.7681167 152.40736,25.30145 C152.274027,25.8081167 152.20736,26.2081167 152.20736,26.50145 C152.20736,27.46145 152.554027,28.26145 153.24736,28.90145 C153.96736,29.5147833 154.88736,29.82145 156.00736,29.82145 C156.48736,29.82145 156.96736,29.74145 157.44736,29.58145 C157.92736,29.3947833 158.354027,29.14145 158.72736,28.82145 L163.36736,35.14145 L161.52736,36.10145 C159.44736,37.0081167 157.36736,37.46145 155.28736,37.46145 C152.24736,37.46145 149.620693,36.6081167 147.40736,34.90145 C145.194027,33.1947833 143.954027,31.5147833 143.68736,29.86145 C143.44736,28.2081167 143.32736,27.0081167 143.32736,26.26145 C143.32736,21.94145 144.714027,19.0481167 147.48736,17.58145 C150.260693,16.1147833 152.780693,15.38145 155.04736,15.38145 C155.474027,15.38145 155.900693,15.3947833 156.32736,15.42145 C156.780693,15.4481167 157.28736,15.5147833 157.84736,15.62145 C158.40736,15.70145 159.00736,15.86145 159.64736,16.10145 C160.28736,16.34145 161.020693,16.6747833 161.84736,17.10145 L162.84736,17.62145 L163.40736,17.98145 L163.40736,17.98145 Z" id="Path" fill="#FFFF00"></path>
            <path d="M185.53923,22.30145 L174.85923,29.98145 L175.93923,30.34145 C176.33923,30.42145 176.73923,30.46145 177.13923,30.46145 C177.85923,30.46145 178.592563,30.3281167 179.33923,30.06145 C180.085897,29.7947833 180.805897,29.4481167 181.49923,29.02145 L181.77923,28.82145 L182.01923,28.66145 L185.49923,34.46145 C184.53923,35.2081167 183.445897,35.82145 182.21923,36.30145 C180.992563,36.78145 179.925897,37.0881167 179.01923,37.22145 C178.112563,37.3547833 177.49923,37.42145 177.17923,37.42145 C176.885897,37.42145 176.645897,37.42145 176.45923,37.42145 C174.112563,37.42145 172.005897,36.8747833 170.13923,35.78145 C168.272563,34.66145 166.872563,33.30145 165.93923,31.70145 C165.005897,30.10145 164.53923,28.3147833 164.53923,26.34145 C164.53923,25.78145 164.65923,24.7147833 164.89923,23.14145 C165.165897,21.54145 166.112563,19.94145 167.73923,18.34145 C169.365897,16.7147833 170.872563,15.82145 172.25923,15.66145 C173.672563,15.50145 174.485897,15.42145 174.69923,15.42145 C174.93923,15.3947833 175.125897,15.38145 175.25923,15.38145 C177.205897,15.38145 179.005897,15.8881167 180.65923,16.90145 C182.33923,17.8881167 183.525897,18.9547833 184.21923,20.10145 C184.912563,21.2481167 185.352563,21.98145 185.53923,22.30145 L185.53923,22.30145 Z M177.65923,22.78145 C177.205897,22.2481167 176.69923,21.94145 176.13923,21.86145 C175.57923,21.7547833 175.205897,21.70145 175.01923,21.70145 C174.05923,21.70145 173.272563,22.02145 172.65923,22.66145 C172.072563,23.2747833 171.77923,24.0881167 171.77923,25.10145 C171.77923,25.26145 171.792563,25.4347833 171.81923,25.62145 C171.845897,25.78145 171.85923,25.9147833 171.85923,26.02145 L172.05923,26.82145 L177.65923,22.78145 L177.65923,22.78145 Z" id="Shape" fill="#FFFF00"></path>
            <path d="M199.60111,16.42145 L198.48111,22.30145 L196.16111,22.30145 L196.16111,27.30145 L196.16111,27.82145 L196.16111,28.26145 C196.32111,29.46145 197.08111,30.06145 198.44111,30.06145 C198.734443,30.06145 198.947777,30.0481167 199.08111,30.02145 L199.44111,29.98145 L198.08111,37.18145 L197.92111,37.18145 L197.40111,37.22145 L195.60111,37.14145 C192.667777,36.8747833 190.627777,36.06145 189.48111,34.70145 C188.334443,33.3147833 187.76111,31.0347833 187.76111,27.86145 L187.76111,27.30145 L187.76111,22.30145 L185.84111,22.30145 L186.76111,16.42145 L187.76111,16.42145 L187.76111,13.62145 L196.16111,10.26145 L196.16111,16.42145 L199.60111,16.42145 L199.60111,16.42145 Z" id="Path" fill="#FFFF00"></path>
            <path d="M221.47673,22.30145 L210.79673,29.98145 L211.87673,30.34145 C212.27673,30.42145 212.67673,30.46145 213.07673,30.46145 C213.79673,30.46145 214.530063,30.3281167 215.27673,30.06145 C216.023397,29.7947833 216.743397,29.4481167 217.43673,29.02145 L217.71673,28.82145 L217.95673,28.66145 L221.43673,34.46145 C220.47673,35.2081167 219.383397,35.82145 218.15673,36.30145 C216.930063,36.78145 215.863397,37.0881167 214.95673,37.22145 C214.050063,37.3547833 213.43673,37.42145 213.11673,37.42145 C212.823397,37.42145 212.583397,37.42145 212.39673,37.42145 C210.050063,37.42145 207.943397,36.8747833 206.07673,35.78145 C204.210063,34.66145 202.810063,33.30145 201.87673,31.70145 C200.943397,30.10145 200.47673,28.3147833 200.47673,26.34145 C200.47673,25.78145 200.59673,24.7147833 200.83673,23.14145 C201.103397,21.54145 202.050063,19.94145 203.67673,18.34145 C205.303397,16.7147833 206.810063,15.82145 208.19673,15.66145 C209.610063,15.50145 210.423397,15.42145 210.63673,15.42145 C210.87673,15.3947833 211.063397,15.38145 211.19673,15.38145 C213.143397,15.38145 214.943397,15.8881167 216.59673,16.90145 C218.27673,17.8881167 219.463397,18.9547833 220.15673,20.10145 C220.850063,21.2481167 221.290063,21.98145 221.47673,22.30145 L221.47673,22.30145 Z M213.59673,22.78145 C213.143397,22.2481167 212.63673,21.94145 212.07673,21.86145 C211.51673,21.7547833 211.143397,21.70145 210.95673,21.70145 C209.99673,21.70145 209.210063,22.02145 208.59673,22.66145 C208.010063,23.2747833 207.71673,24.0881167 207.71673,25.10145 C207.71673,25.26145 207.730063,25.4347833 207.75673,25.62145 C207.783397,25.78145 207.79673,25.9147833 207.79673,26.02145 L207.99673,26.82145 L213.59673,22.78145 L213.59673,22.78145 Z" id="Shape" fill="#FFFF00"></path>
            <path d="M245.41861,36.58145 L237.57861,37.14145 L237.57861,34.62145 C237.41861,34.8347833 237.25861,35.0347833 237.09861,35.22145 C236.965277,35.38145 236.57861,35.7681167 235.93861,36.38145 C235.325277,36.9681167 234.085277,37.26145 232.21861,37.26145 C230.565277,37.26145 228.97861,36.8081167 227.45861,35.90145 C225.965277,34.9681167 224.871943,33.7681167 224.17861,32.30145 C223.511943,30.8347833 223.09861,29.3281167 222.93861,27.78145 C222.93861,27.2481167 222.991943,26.3147833 223.09861,24.98145 C223.231943,23.62145 223.49861,22.2747833 223.89861,20.94145 C224.325277,19.58145 225.325277,18.3547833 226.89861,17.26145 C228.471943,16.14145 230.231943,15.58145 232.17861,15.58145 C233.831943,15.58145 235.445277,15.94145 237.01861,16.66145 L237.01861,8.02145 L245.41861,7.46145 L245.41861,36.58145 L245.41861,36.58145 Z M237.21861,26.18145 C237.21861,25.14145 236.925277,24.3147833 236.33861,23.70145 C235.751943,23.0881167 234.97861,22.78145 234.01861,22.78145 C233.111943,22.78145 232.351943,23.10145 231.73861,23.74145 C231.151943,24.3547833 230.85861,25.1681167 230.85861,26.18145 C230.85861,27.0081167 231.09861,27.7281167 231.57861,28.34145 C232.05861,28.9547833 232.511943,29.3147833 232.93861,29.42145 C233.365277,29.50145 233.631943,29.54145 233.73861,29.54145 C233.871943,29.54145 234.005277,29.54145 234.13861,29.54145 C235.01861,29.54145 235.751943,29.2347833 236.33861,28.62145 C236.925277,28.0081167 237.21861,27.1947833 237.21861,26.18145 L237.21861,26.18145 Z" id="Shape" fill="#FFFF00"></path>
            <path d="M317.0822,22.30145 L306.4022,29.98145 L307.4822,30.34145 C307.8822,30.42145 308.2822,30.46145 308.6822,30.46145 C309.4022,30.46145 310.135533,30.3281167 310.8822,30.06145 C311.628867,29.7947833 312.348867,29.4481167 313.0422,29.02145 L313.3222,28.82145 L313.5622,28.66145 L317.0422,34.46145 C316.0822,35.2081167 314.988867,35.82145 313.7622,36.30145 C312.535533,36.78145 311.468867,37.0881167 310.5622,37.22145 C309.655533,37.3547833 309.0422,37.42145 308.7222,37.42145 C308.428867,37.42145 308.188867,37.42145 308.0022,37.42145 C305.655533,37.42145 303.548867,36.8747833 301.6822,35.78145 C299.815533,34.66145 298.415533,33.30145 297.4822,31.70145 C296.548867,30.10145 296.0822,28.3147833 296.0822,26.34145 C296.0822,25.78145 296.2022,24.7147833 296.4422,23.14145 C296.708867,21.54145 297.655533,19.94145 299.2822,18.34145 C300.908867,16.7147833 302.415533,15.82145 303.8022,15.66145 C305.215533,15.50145 306.028867,15.42145 306.2422,15.42145 C306.4822,15.3947833 306.668867,15.38145 306.8022,15.38145 C308.748867,15.38145 310.548867,15.8881167 312.2022,16.90145 C313.8822,17.8881167 315.068867,18.9547833 315.7622,20.10145 C316.455533,21.2481167 316.895533,21.98145 317.0822,22.30145 L317.0822,22.30145 Z M309.2022,22.78145 C308.748867,22.2481167 308.2422,21.94145 307.6822,21.86145 C307.1222,21.7547833 306.748867,21.70145 306.5622,21.70145 C305.6022,21.70145 304.815533,22.02145 304.2022,22.66145 C303.615533,23.2747833 303.3222,24.0881167 303.3222,25.10145 C303.3222,25.26145 303.335533,25.4347833 303.3622,25.62145 C303.388867,25.78145 303.4022,25.9147833 303.4022,26.02145 L303.6022,26.82145 L309.2022,22.78145 L309.2022,22.78145 Z" id="Shape" fill="#FFFF00"></path>
            <path d="M341.86408,25.46145 C341.86408,27.5681167 341.530747,29.38145 340.86408,30.90145 C340.22408,32.3947833 339.02408,33.82145 337.26408,35.18145 C335.530747,36.54145 333.330747,37.22145 330.66408,37.22145 C329.997413,37.22145 328.70408,37.0747833 326.78408,36.78145 C324.890747,36.46145 323.130747,35.34145 321.50408,33.42145 C319.877413,31.50145 319.06408,28.9147833 319.06408,25.66145 C319.010747,25.42145 318.98408,25.1947833 318.98408,24.98145 C318.98408,24.74145 318.98408,24.50145 318.98408,24.26145 C319.010747,24.02145 319.037413,23.7947833 319.06408,23.58145 L319.06408,8.02145 L327.46408,7.46145 L327.46408,16.34145 L327.90408,16.06145 C328.62408,15.7147833 329.357413,15.4747833 330.10408,15.34145 C330.850747,15.18145 331.677413,15.10145 332.58408,15.10145 C335.197413,15.10145 337.397413,16.06145 339.18408,17.98145 C340.970747,19.90145 341.86408,22.3947833 341.86408,25.46145 L341.86408,25.46145 Z M333.74408,26.06145 C333.74408,25.02145 333.450747,24.1947833 332.86408,23.58145 C332.277413,22.9681167 331.517413,22.66145 330.58408,22.66145 C329.677413,22.66145 328.917413,22.98145 328.30408,23.62145 C327.717413,24.2347833 327.42408,25.0481167 327.42408,26.06145 C327.42408,26.8881167 327.650747,27.6081167 328.10408,28.22145 C328.557413,28.8347833 329.037413,29.1947833 329.54408,29.30145 C330.077413,29.38145 330.437413,29.42145 330.62408,29.42145 C331.50408,29.42145 332.237413,29.1147833 332.82408,28.50145 C333.437413,27.86145 333.74408,27.0481167 333.74408,26.06145 L333.74408,26.06145 Z" id="Shape" fill="#FFFF00"></path>
            <path d="M399.62126,22.30145 L388.94126,29.98145 L390.02126,30.34145 C390.42126,30.42145 390.82126,30.46145 391.22126,30.46145 C391.94126,30.46145 392.674593,30.3281167 393.42126,30.06145 C394.167927,29.7947833 394.887927,29.4481167 395.58126,29.02145 L395.86126,28.82145 L396.10126,28.66145 L399.58126,34.46145 C398.62126,35.2081167 397.527927,35.82145 396.30126,36.30145 C395.074593,36.78145 394.007927,37.0881167 393.10126,37.22145 C392.194593,37.3547833 391.58126,37.42145 391.26126,37.42145 C390.967927,37.42145 390.727927,37.42145 390.54126,37.42145 C388.194593,37.42145 386.087927,36.8747833 384.22126,35.78145 C382.354593,34.66145 380.954593,33.30145 380.02126,31.70145 C379.087927,30.10145 378.62126,28.3147833 378.62126,26.34145 C378.62126,25.78145 378.74126,24.7147833 378.98126,23.14145 C379.247927,21.54145 380.194593,19.94145 381.82126,18.34145 C383.447927,16.7147833 384.954593,15.82145 386.34126,15.66145 C387.754593,15.50145 388.567927,15.42145 388.78126,15.42145 C389.02126,15.3947833 389.207927,15.38145 389.34126,15.38145 C391.287927,15.38145 393.087927,15.8881167 394.74126,16.90145 C396.42126,17.8881167 397.607927,18.9547833 398.30126,20.10145 C398.994593,21.2481167 399.434593,21.98145 399.62126,22.30145 L399.62126,22.30145 Z M391.74126,22.78145 C391.287927,22.2481167 390.78126,21.94145 390.22126,21.86145 C389.66126,21.7547833 389.287927,21.70145 389.10126,21.70145 C388.14126,21.70145 387.354593,22.02145 386.74126,22.66145 C386.154593,23.2747833 385.86126,24.0881167 385.86126,25.10145 C385.86126,25.26145 385.874593,25.4347833 385.90126,25.62145 C385.927927,25.78145 385.94126,25.9147833 385.94126,26.02145 L386.14126,26.82145 L391.74126,22.78145 L391.74126,22.78145 Z" id="Shape" fill="#FFFF00"></path>
            <path d="M416.36314,15.58145 L414.96314,22.98145 L414.40314,22.94145 C413.256473,22.94145 412.376473,23.1681167 411.76314,23.62145 C411.176473,24.0481167 410.72314,24.78145 410.40314,25.82145 C410.136473,26.4347833 410.00314,27.2081167 410.00314,28.14145 L410.00314,28.82145 L410.00314,36.58145 L401.60314,37.14145 L401.60314,16.14145 L409.44314,15.58145 L409.44314,19.38145 L409.76314,18.82145 C410.376473,17.8081167 410.936473,17.0747833 411.44314,16.62145 C411.949807,16.14145 412.496473,15.8081167 413.08314,15.62145 C413.696473,15.4081167 414.24314,15.30145 414.72314,15.30145 C414.88314,15.30145 415.04314,15.30145 415.20314,15.30145 C415.416473,15.3547833 415.576473,15.38145 415.68314,15.38145 L416.36314,15.58145 L416.36314,15.58145 Z" id="Path" fill="#FFFF00"></path>
            <polygon id="Path" fill="#FFFF00" points="437.12751 16.30145 431.40751 36.86145 421.56751 36.86145 415.84751 16.30145 423.60751 15.42145 426.52751 30.46145 429.40751 15.42145"></polygon>
            <path d="M447.40189,10.26145 L442.52189,15.02145 L437.60189,10.26145 L442.52189,5.50145 L447.40189,10.26145 Z M446.72189,36.50145 L438.32189,37.14145 L438.32189,16.14145 L446.72189,15.58145 L446.72189,36.50145 Z" id="Shape" fill="#FFFF00"></path>
            <path d="M469.59876,17.98145 L464.87876,24.10145 C464.105427,23.38145 463.132093,23.02145 461.95876,23.02145 C461.105427,23.02145 460.35876,23.2747833 459.71876,23.78145 C459.105427,24.26145 458.732093,24.7681167 458.59876,25.30145 C458.465427,25.8081167 458.39876,26.2081167 458.39876,26.50145 C458.39876,27.46145 458.745427,28.26145 459.43876,28.90145 C460.15876,29.5147833 461.07876,29.82145 462.19876,29.82145 C462.67876,29.82145 463.15876,29.74145 463.63876,29.58145 C464.11876,29.3947833 464.545427,29.14145 464.91876,28.82145 L469.55876,35.14145 L467.71876,36.10145 C465.63876,37.0081167 463.55876,37.46145 461.47876,37.46145 C458.43876,37.46145 455.812093,36.6081167 453.59876,34.90145 C451.385427,33.1947833 450.145427,31.5147833 449.87876,29.86145 C449.63876,28.2081167 449.51876,27.0081167 449.51876,26.26145 C449.51876,21.94145 450.905427,19.0481167 453.67876,17.58145 C456.452093,16.1147833 458.972093,15.38145 461.23876,15.38145 C461.665427,15.38145 462.092093,15.3947833 462.51876,15.42145 C462.972093,15.4481167 463.47876,15.5147833 464.03876,15.62145 C464.59876,15.70145 465.19876,15.86145 465.83876,16.10145 C466.47876,16.34145 467.212093,16.6747833 468.03876,17.10145 L469.03876,17.62145 L469.59876,17.98145 L469.59876,17.98145 Z" id="Path" fill="#FFFF00"></path>
            <path d="M491.73064,22.30145 L481.05064,29.98145 L482.13064,30.34145 C482.53064,30.42145 482.93064,30.46145 483.33064,30.46145 C484.05064,30.46145 484.783973,30.3281167 485.53064,30.06145 C486.277307,29.7947833 486.997307,29.4481167 487.69064,29.02145 L487.97064,28.82145 L488.21064,28.66145 L491.69064,34.46145 C490.73064,35.2081167 489.637307,35.82145 488.41064,36.30145 C487.183973,36.78145 486.117307,37.0881167 485.21064,37.22145 C484.303973,37.3547833 483.69064,37.42145 483.37064,37.42145 C483.077307,37.42145 482.837307,37.42145 482.65064,37.42145 C480.303973,37.42145 478.197307,36.8747833 476.33064,35.78145 C474.463973,34.66145 473.063973,33.30145 472.13064,31.70145 C471.197307,30.10145 470.73064,28.3147833 470.73064,26.34145 C470.73064,25.78145 470.85064,24.7147833 471.09064,23.14145 C471.357307,21.54145 472.303973,19.94145 473.93064,18.34145 C475.557307,16.7147833 477.063973,15.82145 478.45064,15.66145 C479.863973,15.50145 480.677307,15.42145 480.89064,15.42145 C481.13064,15.3947833 481.317307,15.38145 481.45064,15.38145 C483.397307,15.38145 485.197307,15.8881167 486.85064,16.90145 C488.53064,17.8881167 489.717307,18.9547833 490.41064,20.10145 C491.103973,21.2481167 491.543973,21.98145 491.73064,22.30145 L491.73064,22.30145 Z M483.85064,22.78145 C483.397307,22.2481167 482.89064,21.94145 482.33064,21.86145 C481.77064,21.7547833 481.397307,21.70145 481.21064,21.70145 C480.25064,21.70145 479.463973,22.02145 478.85064,22.66145 C478.263973,23.2747833 477.97064,24.0881167 477.97064,25.10145 C477.97064,25.26145 477.983973,25.4347833 478.01064,25.62145 C478.037307,25.78145 478.05064,25.9147833 478.05064,26.02145 L478.25064,26.82145 L483.85064,22.78145 L483.85064,22.78145 Z" id="Shape" fill="#FFFF00"></path>
            <path d="M509.63251,29.98145 C509.659177,30.1681167 509.67251,30.4481167 509.67251,30.82145 C509.67251,32.7681167 508.819177,34.38145 507.11251,35.66145 C505.405843,36.9147833 502.979177,37.54145 499.83251,37.54145 C499.219177,37.54145 498.565843,37.5147833 497.87251,37.46145 C497.179177,37.4081167 496.259177,37.2881167 495.11251,37.10145 L493.59251,36.82145 L492.87251,36.70145 L493.79251,30.18145 L494.31251,30.34145 L494.87251,30.46145 L495.51251,30.58145 L496.35251,30.66145 C496.91251,30.74145 497.405843,30.78145 497.83251,30.78145 C498.259177,30.78145 498.75251,30.7147833 499.31251,30.58145 C499.899177,30.4481167 500.259177,30.2481167 500.39251,29.98145 C500.525843,29.6881167 500.59251,29.4881167 500.59251,29.38145 C500.59251,29.22145 500.55251,29.10145 500.47251,29.02145 L500.27251,28.86145 L499.51251,28.54145 L498.67251,28.26145 C496.645843,27.70145 495.165843,26.94145 494.23251,25.98145 C493.325843,24.9947833 492.87251,23.7547833 492.87251,22.26145 C492.87251,21.9147833 492.91251,21.4081167 492.99251,20.74145 C493.07251,20.0747833 493.43251,19.3281167 494.07251,18.50145 C494.71251,17.6747833 495.539177,17.02145 496.55251,16.54145 C497.565843,16.06145 498.565843,15.7281167 499.55251,15.54145 C500.539177,15.3547833 501.739177,15.26145 503.15251,15.26145 C503.845843,15.26145 504.499177,15.30145 505.11251,15.38145 C505.75251,15.46145 506.685843,15.6347833 507.91251,15.90145 L508.79251,16.14145 L507.83251,22.38145 L507.35251,22.30145 L506.91251,22.22145 L506.27251,22.18145 L505.55251,22.14145 L504.95251,22.06145 L504.31251,22.06145 L503.91251,22.06145 L503.51251,22.06145 L503.15251,22.06145 C502.299177,22.1681167 501.83251,22.42145 501.75251,22.82145 L501.75251,23.06145 C501.75251,23.3281167 501.779177,23.50145 501.83251,23.58145 C501.885843,23.66145 502.059177,23.7681167 502.35251,23.90145 L502.63251,24.02145 L503.55251,24.34145 C505.765843,25.06145 507.299177,25.82145 508.15251,26.62145 C509.005843,27.3947833 509.499177,28.5147833 509.63251,29.98145 L509.63251,29.98145 Z" id="Path" fill="#FFFF00"></path>
        </g>
    </g>
</svg>