<?xml version="1.0" encoding="UTF-8"?>
<svg width="123px" height="38px" viewBox="0 0 123 38" version="1.1" xmlns="http://www.w3.org/2000/svg" xmlns:xlink="http://www.w3.org/1999/xlink">
    <!-- Generator: Sketch 59.1 (86144) - https://sketch.com -->
    <title>mfws</title>
    <desc>Created with Sketch.</desc>
    <g id="Page-1" stroke="none" stroke-width="1" fill="none" fill-rule="evenodd">
        <g id="mfws" fill-rule="nonzero">
            <path d="M38.758294,36.51145 L28.858294,37.21145 L28.858294,22.91145 L28.858294,22.11145 L28.808294,21.16145 C28.808294,19.8947833 28.1749607,19.26145 26.908294,19.26145 C26.708294,19.2947833 26.558294,19.31145 26.458294,19.31145 C25.2916273,19.4781167 24.708294,20.36145 24.708294,21.96145 L24.608294,22.86145 L24.608294,23.61145 L24.608294,36.51145 L14.708294,37.21145 L14.708294,22.96145 L14.708294,22.21145 L14.708294,21.86145 L14.708294,21.41145 C14.708294,20.8447833 14.558294,20.36145 14.258294,19.96145 C13.958294,19.56145 13.6749607,19.3447833 13.408294,19.31145 C13.1416273,19.2447833 12.9416273,19.21145 12.808294,19.21145 C12.6749607,19.21145 12.5749607,19.21145 12.508294,19.21145 C11.208294,19.21145 10.558294,20.1281167 10.558294,21.96145 L10.508294,22.71145 L10.458294,23.66145 L10.458294,36.51145 L0.558294,37.21145 L0.558294,10.96145 L10.458294,10.26145 L10.458294,14.11145 C10.958294,13.1447833 11.608294,12.31145 12.408294,11.61145 C13.8416273,10.4781167 15.408294,9.91145 17.108294,9.91145 C17.308294,9.91145 17.5416273,9.92811667 17.808294,9.96145 C18.108294,9.99478333 18.5916273,10.06145 19.258294,10.16145 C19.958294,10.2281167 20.6916273,10.5281167 21.458294,11.06145 C22.2249607,11.5947833 22.9249607,12.3947833 23.558294,13.46145 L23.908294,14.36145 L24.458294,13.51145 C25.458294,12.1781167 26.4416273,11.2447833 27.408294,10.71145 C28.3749607,10.1781167 29.5749607,9.91145 31.008294,9.91145 C33.6416273,9.91145 35.5916273,10.7447833 36.858294,12.41145 C38.1249607,14.0447833 38.758294,16.7947833 38.758294,20.66145 L38.758294,22.26145 L38.758294,23.46145 L38.758294,36.51145 L38.758294,36.51145 Z" id="Path" fill="#FF0000"></path>
            <polygon id="Path" fill="#0000FF" points="100.05 11.16145 93.25 36.86145 83.9 36.86145 81.05 22.61145 78.15 36.86145 68.8 36.86145 62 11.16145 71.6 10.06145 74.7 25.06145 77.7 10.61145 84.3 10.61145 87.35 25.06145 90.45 10.06145"></polygon>
            <path d="M59.22861,8.21145 L58.57861,8.11145 C57.27861,8.11145 56.445277,8.22811667 56.07861,8.46145 C55.745277,8.66145 55.495277,8.89478333 55.32861,9.16145 C55.161943,9.42811667 55.045277,9.81145 54.97861,10.31145 L54.92861,10.86145 L54.92861,11.31145 L58.32861,11.31145 L58.32861,18.66145 L54.92861,18.66145 L54.92861,36.41145 L44.42861,37.21145 L44.42861,18.66145 L41.97861,18.66145 L42.82861,11.31145 L44.42861,11.31145 L44.42861,10.91145 L44.42861,10.46145 L44.42861,10.16145 L44.62861,8.46145 C45.12861,5.89478333 46.311943,3.86145 48.17861,2.36145 C50.07861,0.828116667 52.37861,0.06145 55.07861,0.06145 C55.77861,0.06145 56.47861,0.11145 57.17861,0.21145 L57.57861,0.31145 L57.77861,0.31145 L59.22861,8.21145 L59.22861,8.21145 Z" id="Path" fill="#00CC00"></path>
            <path d="M122.95,28.26145 C122.983333,28.4947833 123,28.8447833 123,29.31145 C123,31.7447833 121.933333,33.76145 119.8,35.36145 C117.666667,36.9281167 114.633333,37.71145 110.7,37.71145 C109.933333,37.71145 109.116667,37.6781167 108.25,37.61145 C107.383333,37.5447833 106.233333,37.3947833 104.8,37.16145 L102.9,36.81145 L102,36.66145 L103.15,28.51145 L103.8,28.71145 L104.5,28.86145 L105.3,29.01145 L106.35,29.11145 C107.05,29.21145 107.666667,29.26145 108.2,29.26145 C108.733333,29.26145 109.35,29.1781167 110.05,29.01145 C110.783333,28.8447833 111.233333,28.5947833 111.4,28.26145 C111.566667,27.8947833 111.65,27.6447833 111.65,27.51145 C111.65,27.31145 111.6,27.16145 111.5,27.06145 L111.25,26.86145 L110.3,26.46145 L109.25,26.11145 C106.716667,25.41145 104.866667,24.46145 103.7,23.26145 C102.566667,22.0281167 102,20.4781167 102,18.61145 C102,18.1781167 102.05,17.5447833 102.15,16.71145 C102.25,15.8781167 102.7,14.9447833 103.5,13.91145 C104.3,12.8781167 105.333333,12.06145 106.6,11.46145 C107.866667,10.86145 109.116667,10.4447833 110.35,10.21145 C111.583333,9.97811667 113.083333,9.86145 114.85,9.86145 C115.716667,9.86145 116.533333,9.91145 117.3,10.01145 C118.1,10.11145 119.266667,10.3281167 120.8,10.66145 L121.9,10.96145 L120.7,18.76145 L120.1,18.66145 L119.55,18.56145 L118.75,18.51145 L117.85,18.46145 L117.1,18.36145 L116.3,18.36145 L115.8,18.36145 L115.3,18.36145 L114.85,18.36145 C113.783333,18.4947833 113.2,18.81145 113.1,19.31145 L113.1,19.61145 C113.1,19.9447833 113.133333,20.16145 113.2,20.26145 C113.266667,20.36145 113.483333,20.4947833 113.85,20.66145 L114.2,20.81145 L115.35,21.21145 C118.116667,22.11145 120.033333,23.06145 121.1,24.06145 C122.166667,25.0281167 122.783333,26.4281167 122.95,28.26145 L122.95,28.26145 Z" id="Path" fill="#FF00FF"></path>
        </g>
    </g>
</svg>