<?xml version="1.0" encoding="UTF-8"?>
<svg width="14px" height="21px" viewBox="0 0 14 21" version="1.1" xmlns="http://www.w3.org/2000/svg" xmlns:xlink="http://www.w3.org/1999/xlink">
    <!-- Generator: Sketch 59.1 (86144) - https://sketch.com -->
    <title>pin</title>
    <desc>Created with Sketch.</desc>
    <g id="Page-1" stroke="none" stroke-width="1" fill="none" fill-rule="evenodd" fill-opacity="0.5">
        <g id="pin" fill="#000000" fill-rule="nonzero">
            <path d="M6.84,8.8817842e-15 C10.60416,8.8817842e-15 13.66668,3.06252 13.66668,6.82664 C13.66668,7.95664 13.38416,9.07708 12.84916,10.06748 L12.84916,10.06748 L7.21332,20.26 C7.13832,20.39584 6.9954,20.48 6.84,20.48 C6.6846,20.48 6.54168,20.39584 6.46668,20.26 L6.46668,20.26 L0.83292,10.07084 C0.29584,9.07708 0.01332,7.95668 0.01332,6.82668 C0.01332,3.06252 3.07584,8.8817842e-15 6.84,8.8817842e-15 Z M6.84,3.41332 C4.95792,3.41332 3.42668,4.94456 3.42668,6.82664 C3.42668,8.70876 4.95792,10.24 6.84,10.24 C8.72208,10.24 10.25332,8.70876 10.25332,6.82668 C10.25332,4.9446 8.72208,3.41332 6.84,3.41332 Z" id="Combined-Shape"></path>
        </g>
    </g>
</svg>